<?xml version="1.0" encoding="utf-8"?>
<!-- Generator: Adobe Illustrator 16.0.0, SVG Export Plug-In . SVG Version: 6.00 Build 0)  -->
<!DOCTYPE svg PUBLIC "-//W3C//DTD SVG 1.1 Tiny//EN" "http://www.w3.org/Graphics/SVG/1.1/DTD/svg11-tiny.dtd">
<svg version="1.1" baseProfile="tiny" id="Layer_1" xmlns="http://www.w3.org/2000/svg" xmlns:xlink="http://www.w3.org/1999/xlink"
	 x="0px" y="0px" width="24px" height="24px" viewBox="0 0 24 24" xml:space="preserve">
<g>
	<path d="M8.021,16.38h14.959c0.221,0,0.4-0.18,0.4-0.4V1.021c0-0.221-0.179-0.4-0.4-0.4H8.021c-0.221,0-0.4,0.18-0.4,0.4v14.959
		C7.621,16.2,7.8,16.38,8.021,16.38z M8.42,1.421H22.58v14.158H8.42V1.421z"/>
	<path d="M1.021,23.38h14.959c0.221,0,0.4-0.18,0.4-0.4v-4.959c0-0.221-0.179-0.4-0.4-0.4s-0.4,0.18-0.4,0.4v4.559H1.42V8.421h4.559
		c0.221,0,0.4-0.18,0.4-0.4s-0.179-0.4-0.4-0.4H1.021c-0.221,0-0.4,0.18-0.4,0.4v14.959C0.621,23.2,0.8,23.38,1.021,23.38z"/>
</g>
</svg>
